<mxfile host="65bd71144e">
    <diagram name="Model Comparison - Round 2" id="model-comparison-round2">
        <mxGraphModel dx="1428" dy="711" grid="1" gridSize="10" guides="1" tooltips="1" connect="1" arrows="1" fold="1" page="1" pageScale="1" pageWidth="1400" pageHeight="1000" math="0" shadow="0">
            <root>
                <mxCell id="0"/>
                <mxCell id="1" parent="0"/>
                <object label="🧩 Model Comparison – Round 2" tooltip="Round 2 comparison of 4 different AI coding models tested with Continue extension in VS Code. This round shows significant improvements from Round 1, with better tool execution rates (75% vs 50%) and all successful models now using correct Lit 3 imports. The comparison evaluates tool execution, code quality, modern syntax usage, and overall performance across different model sizes and architectures." id="title">
                    <mxCell style="rounded=1;whiteSpace=wrap;html=1;fontSize=20;fontStyle=1;fillColor=#dae8fc;strokeColor=#6c8ebf;verticalAlign=top;spacingTop=10;spacingBottom=10;" parent="1" vertex="1">
                        <mxGeometry x="40" y="20" width="1320" height="60" as="geometry"/>
                    </mxCell>
                </object>
                <object label="📋 Test Prompt&lt;br&gt;&lt;br&gt;&amp;gt; Please use the tool create_new_file to create a TypeScript Lit 3 component for me in a .ts file." tooltip="The exact prompt given to all models in Round 2: &#39;Please use the tool create_new_file to create a TypeScript Lit 3 component for me in a .ts file.&#39; This standardized prompt tests each model&#39;s ability to understand tool calling syntax, generate modern TypeScript code, and properly use the Lit 3 framework with decorators and modern imports." id="test-prompt">
                    <mxCell style="rounded=1;whiteSpace=wrap;html=1;fontSize=14;fontStyle=1;fillColor=#e1d5e7;strokeColor=#9673a6;verticalAlign=top;spacingTop=10;spacingBottom=10;" parent="1" vertex="1">
                        <mxGeometry x="40" y="100" width="1320" height="80" as="geometry"/>
                    </mxCell>
                </object>
                <object label="⚙️ Test Environment &amp; Configuration" tooltip="Round 2 test environment with updated rules and stricter JSON schema requirements. This round included Lit 3 context reminders and improved configuration to address issues identified in Round 1. The environment tests real-world usage scenarios with enhanced tool calling capabilities and better model guidance." id="test-environment-title">
                    <mxCell style="rounded=1;whiteSpace=wrap;html=1;fontSize=14;fontStyle=1;fillColor=#fff2cc;strokeColor=#d6b656;verticalAlign=top;spacingTop=10;spacingBottom=10;" parent="1" vertex="1">
                        <mxGeometry x="40" y="200" width="1320" height="40" as="geometry"/>
                    </mxCell>
                </object>
                <object label="📋 Continue Agent Rules (Updated)&lt;br&gt;&lt;br&gt;# Tool Usage Policy&lt;br&gt;You are a coding agent in VS Code with Continue tool access.&lt;br&gt;&lt;br&gt;- You must prefer tools over direct code output.&lt;br&gt;- When creating or editing files, use only the official Continue JSON schema:&lt;br&gt;  {&quot;tool&quot;:&quot;&lt;tool_name&gt;&quot;,&quot;args&quot;:{...}}&lt;br&gt;- Do not use &quot;name&quot;, &quot;arguments&quot;, or &quot;filepath&quot;.&lt;br&gt;- Always specify absolute or project-relative paths (e.g., src/components/...).&lt;br&gt;- When the task involves file creation or modification, always:&lt;br&gt;    1. call the tool&lt;br&gt;    2. wait for confirmation&lt;br&gt;    3. summarize the change (optional)" tooltip="Updated Continue Agent rules for Round 2 with explicit tool usage policy and strict JSON schema requirements. These enhanced rules address issues identified in Round 1 by providing clear guidance on tool calling format, path specifications, and workflow. The rules explicitly prohibit the incorrect schema format that caused issues in Round 1 and provide a clear 3-step process for file operations." id="continue-rules">
                    <mxCell style="rounded=1;whiteSpace=wrap;html=1;fontSize=11;fillColor=#fff2cc;strokeColor=#d6b656;verticalAlign=top;spacingTop=5;" parent="1" vertex="1">
                        <mxGeometry x="40" y="260" width="640" height="670" as="geometry"/>
                    </mxCell>
                </object>
                <object label="⚙️ Configuration (config.yaml)&lt;br&gt;&lt;br&gt;```yaml&lt;br&gt;name: Local Agent&lt;br&gt;version: 1.0.0&lt;br&gt;schema: v1&lt;br&gt;&lt;br&gt;systemPrompt: |&lt;br&gt;  You are a coding assistant working inside VS Code.&lt;br&gt;  Always prefer Continue tool calls.&lt;br&gt;  Follow this exact JSON schema when calling a tool:&lt;br&gt;  {&quot;tool&quot;:&quot;&lt;name&gt;&quot;,&quot;args&quot;:{...}}&lt;br&gt;&lt;br&gt;autoApplyEdits: true&lt;br&gt;autoExecuteToolCalls: true&lt;br&gt;&lt;br&gt;providers:&lt;br&gt;  ollama:&lt;br&gt;    apiBase: http://127.0.0.1:11434&lt;br&gt;&lt;br&gt;models:&lt;br&gt;  - name: StarCoder 2 7B (Ollama)&lt;br&gt;    provider: ollama&lt;br&gt;    model: starcoder2:7b-q4_K_M&lt;br&gt;    roles: [chat, edit, apply, autocomplete]&lt;br&gt;    toolCalling: true&lt;br&gt;    toolSchemaHint: &#39;{&quot;tool&quot;:&quot;&lt;tool_name&gt;&quot;,&quot;args&quot;:{&quot;path&quot;:&quot;string&quot;,&quot;content&quot;:&quot;string&quot;}}&#39;&lt;br&gt;&lt;br&gt;  - name: DeepSeek Coder&lt;br&gt;    provider: ollama&lt;br&gt;    model: deepseek-coder:6.7b-instruct-q4_K_M&lt;br&gt;    roles: [chat, edit, apply, autocomplete]&lt;br&gt;    toolCalling: true&lt;br&gt;    toolSchemaHint: &#39;{&quot;tool&quot;:&quot;&lt;tool_name&gt;&quot;,&quot;args&quot;:{&quot;path&quot;:&quot;string&quot;,&quot;content&quot;:&quot;string&quot;}}&#39;&lt;br&gt;&lt;br&gt;  - name: Qwen Coder&lt;br&gt;    provider: ollama&lt;br&gt;    model: qwen2.5-coder:7b-instruct-q4_K_M&lt;br&gt;    roles: [chat, edit, apply, autocomplete]&lt;br&gt;    toolCalling: true&lt;br&gt;    toolSchemaHint: &#39;{&quot;tool&quot;:&quot;&lt;tool_name&gt;&quot;,&quot;args&quot;:{&quot;path&quot;:&quot;string&quot;,&quot;content&quot;:&quot;string&quot;}}&#39;&lt;br&gt;&lt;br&gt;  - name: StarCoder2 15B Instruct&lt;br&gt;    provider: ollama&lt;br&gt;    model: starcoder2:15b-instruct&lt;br&gt;    roles: [chat, edit, apply, autocomplete]&lt;br&gt;    toolCalling: true&lt;br&gt;    toolSchemaHint: &#39;{&quot;tool&quot;:&quot;&lt;tool_name&gt;&quot;,&quot;args&quot;:{&quot;path&quot;:&quot;string&quot;,&quot;content&quot;:&quot;string&quot;}}&#39;&lt;br&gt;&lt;br&gt;  - name: Nomic Embed&lt;br&gt;    provider: ollama&lt;br&gt;    model: nomic-embed-text:latest&lt;br&gt;    roles: [embed]&lt;br&gt;```" tooltip="Complete Continue configuration file used in Round 2 test environment. This YAML configuration includes a systemPrompt that explicitly instructs models to use Continue tool calls and follow the exact JSON schema format. All models are configured with toolCalling: true and toolSchemaHint to provide explicit guidance on the correct tool calling format. The configuration includes 4 coding models (StarCoder2 7B, DeepSeek Coder 6.7B, Qwen Coder 7B, StarCoder2 15B) and one embedding model (Nomic Embed). The systemPrompt and toolSchemaHint are key improvements that likely contributed to the better tool execution rates in Round 2." id="config-yaml">
                    <mxCell style="rounded=1;whiteSpace=wrap;html=1;fontSize=10;fillColor=#e1d5e7;strokeColor=#9673a6;verticalAlign=top;spacingTop=5;" parent="1" vertex="1">
                        <mxGeometry x="700" y="260" width="660" height="670" as="geometry"/>
                    </mxCell>
                </object>
                <object label="🥇 Model 1: StarCoder2 15B Instruct" tooltip="StarCoder2 (15b-instruct) - The clear winner in Round 2. Successfully executed the tool call and created the TypeScript Lit component file. Generated valid TypeScript Lit 3 code with proper structure and correct imports. Demonstrated excellent tool handling capabilities and provided clear status feedback throughout the process. This model shows the most reliable tool calling behavior and practical coding assistance in Round 2." id="model1-title">
                    <mxCell style="rounded=1;whiteSpace=wrap;html=1;fontSize=16;fontStyle=1;fillColor=#d5e8d4;strokeColor=#82b366;verticalAlign=top;spacingTop=10;" parent="1" vertex="1">
                        <mxGeometry x="40" y="950" width="320" height="60" as="geometry"/>
                    </mxCell>
                </object>
                <object label="✅ Tool Execution: SUCCESS&lt;br&gt;✅ Code Quality: Excellent&lt;br&gt;✅ Modern Syntax: Perfect Lit 3&lt;br&gt;💬 User Experience: Excellent" tooltip="StarCoder2 15B successfully executed the create_new_file tool and generated a working TypeScript Lit 3 component. The code was syntactically correct and followed modern Lit 3 patterns with proper imports. The model provided clear feedback and demonstrated reliable tool calling capabilities, making it the best choice for Continue integration in Round 2." id="model1-results">
                    <mxCell style="rounded=1;whiteSpace=wrap;html=1;fontSize=12;fillColor=#d5e8d4;strokeColor=#82b366;verticalAlign=top;spacingTop=5;" parent="1" vertex="1">
                        <mxGeometry x="40" y="1030" width="320" height="100" as="geometry"/>
                    </mxCell>
                </object>
                <object label="🥈 Model 2: DeepSeek Coder 6.7B Instruct" tooltip="DeepSeek Coder (6.7b-instruct-q4_K_M) - Strong performance with major improvements from Round 1. Successfully executed the tool call and created the TypeScript Lit component file. Now correctly uses Lit 3 imports instead of legacy lit-element. Demonstrated reliable tool handling capabilities with minimal but effective feedback. Shows significant improvement in framework accuracy." id="model2-title">
                    <mxCell style="rounded=1;whiteSpace=wrap;html=1;fontSize=16;fontStyle=1;fillColor=#fff2cc;strokeColor=#d6b656;verticalAlign=top;spacingTop=10;" parent="1" vertex="1">
                        <mxGeometry x="380" y="950" width="320" height="60" as="geometry"/>
                    </mxCell>
                </object>
                <object label="✅ Tool Execution: SUCCESS&lt;br&gt;✅ Code Quality: Good&lt;br&gt;✅ Modern Syntax: Lit 3 imports&lt;br&gt;💬 User Experience: Good" tooltip="DeepSeek Coder successfully executed the create_new_file tool and generated a working TypeScript Lit 3 component. Major improvement from Round 1 - now uses correct lit imports instead of legacy lit-element. The model provided minimal but clear feedback and demonstrated reliable tool calling capabilities, showing significant improvement in framework accuracy." id="model2-results">
                    <mxCell style="rounded=1;whiteSpace=wrap;html=1;fontSize=12;fillColor=#fff2cc;strokeColor=#d6b656;verticalAlign=top;spacingTop=5;" parent="1" vertex="1">
                        <mxGeometry x="380" y="1030" width="320" height="100" as="geometry"/>
                    </mxCell>
                </object>
                <object label="🥉 Model 3: Qwen2.5 Coder 7B Instruct" tooltip="Qwen2.5 Coder (7b-instruct-q4_K_M) - Excellent code quality but persistent tool execution issues. Generated the best TypeScript Lit 3 code using modern decorators and correct imports, demonstrating superior understanding of current Lit framework patterns. However, continued to use incorrect JSON schema for tool calling, preventing successful file creation. Shows great potential but needs better tool calling consistency." id="model3-title">
                    <mxCell style="rounded=1;whiteSpace=wrap;html=1;fontSize=16;fontStyle=1;fillColor=#ffe6cc;strokeColor=#d79b00;verticalAlign=top;spacingTop=10;" parent="1" vertex="1">
                        <mxGeometry x="720" y="950" width="320" height="60" as="geometry"/>
                    </mxCell>
                </object>
                <object label="❌ Tool Execution: FAILED&lt;br&gt;✅ Code Quality: Excellent&lt;br&gt;✅ Modern Syntax: Perfect&lt;br&gt;💬 User Experience: Good" tooltip="Qwen2.5 Coder generated the highest quality TypeScript Lit 3 code with modern decorators and correct imports, but failed to execute the tool due to incorrect JSON schema. The model demonstrated excellent understanding of modern Lit patterns and TypeScript best practices, but continued to struggle with Continue&#39;s specific tool calling format. This represents the best code quality but worst tool execution in Round 2." id="model3-results">
                    <mxCell style="rounded=1;whiteSpace=wrap;html=1;fontSize=12;fillColor=#ffe6cc;strokeColor=#d79b00;verticalAlign=top;spacingTop=5;" parent="1" vertex="1">
                        <mxGeometry x="720" y="1030" width="320" height="100" as="geometry"/>
                    </mxCell>
                </object>
                <object label="❌ Model 4: StarCoder2 7B Base" tooltip="StarCoder2 (7b-q4_K_M) - Complete failure with no output. Produced nothing at all, likely failed to parse tool context or schema. This represents the worst performance in Round 2, showing poor prompt understanding and no tool calling capabilities. The base model (non-instruct) version appears to lack the instruction-following capabilities needed for Continue integration." id="model4-title">
                    <mxCell style="rounded=1;whiteSpace=wrap;html=1;fontSize=16;fontStyle=1;fillColor=#f8cecc;strokeColor=#b85450;verticalAlign=top;spacingTop=10;" parent="1" vertex="1">
                        <mxGeometry x="1060" y="950" width="320" height="60" as="geometry"/>
                    </mxCell>
                </object>
                <object label="❌ Tool Execution: NONE&lt;br&gt;❌ Code Quality: N/A&lt;br&gt;❌ Modern Syntax: N/A&lt;br&gt;💬 User Experience: Poor" tooltip="StarCoder2 7B base model completely failed to understand the task, producing no output at all. This represents the worst performance in Round 2, showing fundamental misunderstanding of the prompt and no tool calling capabilities. The base model version lacks the instruction-following capabilities needed for practical Continue usage." id="model4-results">
                    <mxCell style="rounded=1;whiteSpace=wrap;html=1;fontSize=12;fillColor=#f8cecc;strokeColor=#b85450;verticalAlign=top;spacingTop=5;" parent="1" vertex="1">
                        <mxGeometry x="1060" y="1030" width="320" height="100" as="geometry"/>
                    </mxCell>
                </object>
                <object label="📊 Round 2 vs Round 1 Analysis" tooltip="Comprehensive analysis comparing Round 2 results to Round 1, showing significant improvements in tool execution rates, framework accuracy, and overall model performance. This analysis reveals the impact of updated rules and configuration on model behavior." id="analysis-title">
                    <mxCell style="rounded=1;whiteSpace=wrap;html=1;fontSize=16;fontStyle=1;fillColor=#e1d5e7;strokeColor=#9673a6;verticalAlign=top;spacingTop=10;" parent="1" vertex="1">
                        <mxGeometry x="40" y="1150" width="1320" height="40" as="geometry"/>
                    </mxCell>
                </object>
                <object label="🔧 Tool Execution Improvements&lt;br&gt;&lt;br&gt;🥇 StarCoder2 15B: New winner&lt;br&gt;🥈 DeepSeek Coder: Consistent success&lt;br&gt;🥉 Qwen2.5 Coder: Same schema issues&lt;br&gt;❌ StarCoder2 7B: Complete failure&lt;br&gt;&lt;br&gt;Key Insight: Tool success rate increased from 50% to 75%" tooltip="Round 2 shows major improvements in tool execution. StarCoder2 15B emerged as the new winner with excellent tool calling capabilities. DeepSeek Coder maintained consistent success. Qwen2.5 Coder continued to struggle with JSON schema issues. StarCoder2 7B showed complete failure. The overall tool success rate increased from 50% in Round 1 to 75% in Round 2, demonstrating the impact of improved rules and configuration." id="tool-execution">
                    <mxCell style="rounded=1;whiteSpace=wrap;html=1;fontSize=11;fillColor=#d5e8d4;strokeColor=#82b366;verticalAlign=top;spacingTop=5;" parent="1" vertex="1">
                        <mxGeometry x="40" y="1210" width="320" height="160" as="geometry"/>
                    </mxCell>
                </object>
                <object label="💻 Framework Accuracy Improvements&lt;br&gt;&lt;br&gt;🥇 All successful models: Lit 3 imports&lt;br&gt;🥈 DeepSeek: Major improvement&lt;br&gt;🥉 Qwen2.5: Perfect Lit 3 usage&lt;br&gt;❌ StarCoder2 7B: No output&lt;br&gt;&lt;br&gt;Key Insight: No more legacy lit-element imports" tooltip="Round 2 shows significant improvements in framework accuracy. All successful models now use correct Lit 3 imports instead of legacy lit-element. DeepSeek Coder made major improvements from Round 1. Qwen2.5 Coder continued to demonstrate perfect Lit 3 usage. StarCoder2 7B produced no output to evaluate. The elimination of legacy imports represents a major step forward in framework accuracy." id="code-quality">
                    <mxCell style="rounded=1;whiteSpace=wrap;html=1;fontSize=11;fillColor=#fff2cc;strokeColor=#d6b656;verticalAlign=top;spacingTop=5;" parent="1" vertex="1">
                        <mxGeometry x="380" y="1210" width="320" height="160" as="geometry"/>
                    </mxCell>
                </object>
                <object label="⚡ Modern Syntax Usage&lt;br&gt;&lt;br&gt;🥇 Qwen2.5 Coder: Perfect decorators&lt;br&gt;🥈 StarCoder2 15B: Excellent Lit 3&lt;br&gt;🥉 DeepSeek Coder: Good Lit 3&lt;br&gt;❌ StarCoder2 7B: No output&lt;br&gt;&lt;br&gt;Key Insight: All successful models use modern Lit 3 patterns" tooltip="Round 2 shows excellent modern syntax usage across successful models. Qwen2.5 Coder continues to excel with perfect TypeScript decorators and modern patterns. StarCoder2 15B demonstrates excellent Lit 3 usage. DeepSeek Coder shows good Lit 3 implementation. StarCoder2 7B produced no output to evaluate. All successful models now use modern Lit 3 patterns, representing a major improvement from Round 1." id="modern-syntax">
                    <mxCell style="rounded=1;whiteSpace=wrap;html=1;fontSize=11;fillColor=#ffe6cc;strokeColor=#d79b00;verticalAlign=top;spacingTop=5;" parent="1" vertex="1">
                        <mxGeometry x="720" y="1210" width="320" height="160" as="geometry"/>
                    </mxCell>
                </object>
                <object label="💬 User Experience Improvements&lt;br&gt;&lt;br&gt;🥇 StarCoder2 15B: Excellent feedback&lt;br&gt;🥈 DeepSeek Coder: Minimal but clear&lt;br&gt;🥉 Qwen2.5 Coder: Good communication&lt;br&gt;❌ StarCoder2 7B: No communication&lt;br&gt;&lt;br&gt;Key Insight: Better contextual understanding" tooltip="Round 2 shows improvements in user experience across successful models. StarCoder2 15B provides excellent feedback and contextual understanding. DeepSeek Coder offers minimal but clear communication. Qwen2.5 Coder demonstrates good communication despite tool execution issues. StarCoder2 7B shows no communication at all. The overall user experience has improved with better contextual understanding and clearer feedback." id="user-experience">
                    <mxCell style="rounded=1;whiteSpace=wrap;html=1;fontSize=11;fillColor=#f8cecc;strokeColor=#b85450;verticalAlign=top;spacingTop=5;" parent="1" vertex="1">
                        <mxGeometry x="1060" y="1210" width="320" height="160" as="geometry"/>
                    </mxCell>
                </object>
                <object label="🏆 Round 2 Summary &amp; Recommendations" tooltip="Comprehensive summary of Round 2 results with actionable recommendations for Continue users. Round 2 shows significant improvements over Round 1, with better tool execution rates, framework accuracy, and overall model performance. The comparison reveals clear winners in different categories and provides guidance for choosing the right model based on specific needs." id="summary-title">
                    <mxCell style="rounded=1;whiteSpace=wrap;html=1;fontSize=16;fontStyle=1;fillColor=#dae8fc;strokeColor=#6c8ebf;verticalAlign=top;spacingTop=10;" parent="1" vertex="1">
                        <mxGeometry x="40" y="1390" width="1320" height="40" as="geometry"/>
                    </mxCell>
                </object>
                <object label="🥇 Best Overall: StarCoder2 15B Instruct&lt;br&gt;&lt;br&gt;✅ Reliable tool execution&lt;br&gt;✅ Excellent code quality&lt;br&gt;✅ Perfect Lit 3 usage&lt;br&gt;✅ Clear communication&lt;br&gt;&lt;br&gt;Recommended for: Daily Continue usage, reliable tool calling, excellent user experience" tooltip="StarCoder2 15B Instruct emerges as the clear winner for practical Continue usage in Round 2. It successfully executed the tool call, created the requested file, and provided excellent feedback throughout the process. The model demonstrates perfect Lit 3 usage, reliable tool calling capabilities, and clear communication, making it the top choice for developers who need consistent, reliable AI assistance with Continue." id="best-overall">
                    <mxCell style="rounded=1;whiteSpace=wrap;html=1;fontSize=12;fillColor=#d5e8d4;strokeColor=#82b366;verticalAlign=top;spacingTop=5;" parent="1" vertex="1">
                        <mxGeometry x="40" y="1450" width="320" height="140" as="geometry"/>
                    </mxCell>
                </object>
                <object label="🥈 Best Code Quality: Qwen2.5 Coder 7B&lt;br&gt;&lt;br&gt;✅ Perfect TypeScript decorators&lt;br&gt;✅ Modern Lit 3 patterns&lt;br&gt;✅ Excellent syntax quality&lt;br&gt;❌ Tool calling schema issues&lt;br&gt;&lt;br&gt;Recommended for: Code review, syntax examples, when tool calling isn&#39;t critical" tooltip="Qwen2.5 Coder 7B continues to produce the highest quality TypeScript code with perfect decorators and modern Lit 3 patterns, but struggles with tool execution due to incorrect JSON schema usage. This model excels at generating code examples, providing syntax guidance, and demonstrating modern best practices. However, its tool calling inconsistency makes it less reliable for automated tasks. Best used for code review, learning modern patterns, or when manual code copying is acceptable." id="best-code-quality">
                    <mxCell style="rounded=1;whiteSpace=wrap;html=1;fontSize=12;fillColor=#fff2cc;strokeColor=#d6b656;verticalAlign=top;spacingTop=5;" parent="1" vertex="1">
                        <mxGeometry x="380" y="1450" width="320" height="140" as="geometry"/>
                    </mxCell>
                </object>
                <object label="🥉 Improved Performance: DeepSeek Coder 6.7B&lt;br&gt;&lt;br&gt;✅ Reliable tool execution&lt;br&gt;✅ Good Lit 3 usage&lt;br&gt;✅ Consistent performance&lt;br&gt;⚠️ Minimal feedback&lt;br&gt;&lt;br&gt;Recommended for: Reliable automation, when minimal feedback is acceptable" tooltip="DeepSeek Coder 6.7B shows significant improvement from Round 1 with reliable tool execution and correct Lit 3 usage. The model successfully executes tools and generates functional code, though with minimal feedback. This represents a major improvement in framework accuracy and tool calling reliability, making it suitable for automated tasks where consistent performance is more important than verbose communication." id="improved-performance">
                    <mxCell style="rounded=1;whiteSpace=wrap;html=1;fontSize=12;fillColor=#ffe6cc;strokeColor=#d79b00;verticalAlign=top;spacingTop=5;" parent="1" vertex="1">
                        <mxGeometry x="720" y="1450" width="320" height="140" as="geometry"/>
                    </mxCell>
                </object>
                <object label="🔮 Key Insights for Continue Users&lt;br&gt;&lt;br&gt;• Tool success rate: 50% → 75%&lt;br&gt;• All successful models use Lit 3&lt;br&gt;• StarCoder2 15B is new winner&lt;br&gt;• DeepSeek improved significantly&lt;br&gt;• Qwen2.5 still has schema issues&lt;br&gt;&lt;br&gt;Next: Test with more complex tasks" tooltip="Key insights from Round 2 reveal significant improvements over Round 1. Tool success rate increased from 50% to 75%, showing the impact of improved rules and configuration. All successful models now use correct Lit 3 imports, eliminating legacy syntax issues. StarCoder2 15B emerged as the new winner with excellent overall performance. DeepSeek Coder showed major improvements in framework accuracy. Qwen2.5 Coder continues to struggle with tool calling schema but excels at code quality. Future rounds should test more complex tasks and edge cases to further validate these improvements." id="key-insights">
                    <mxCell style="rounded=1;whiteSpace=wrap;html=1;fontSize=12;fillColor=#e1d5e7;strokeColor=#9673a6;verticalAlign=top;spacingTop=5;" parent="1" vertex="1">
                        <mxGeometry x="1060" y="1450" width="320" height="140" as="geometry"/>
                    </mxCell>
                </object>
                <object label="📈 Performance Metrics Summary" tooltip="Quantitative summary of Round 2 model performance across key metrics. This table provides a clear comparison of how each model performed in different categories, showing the improvements from Round 1 and helping users make informed decisions about which model to use for specific tasks." id="metrics-title">
                    <mxCell style="rounded=1;whiteSpace=wrap;html=1;fontSize=16;fontStyle=1;fillColor=#dae8fc;strokeColor=#6c8ebf;verticalAlign=top;spacingTop=10;" parent="1" vertex="1">
                        <mxGeometry x="40" y="1610" width="1320" height="40" as="geometry"/>
                    </mxCell>
                </object>
                <object label="Model Performance Matrix (Round 2)&lt;br&gt;&lt;br&gt;&lt;table style=&quot;width:100%; border-collapse:collapse;&quot;&gt;&lt;tr&gt;&lt;th style=&quot;text-align:left; padding:4px;&quot;&gt;Model&lt;/th&gt;&lt;th style=&quot;text-align:center; padding:4px;&quot;&gt;Tool Exec&lt;/th&gt;&lt;th style=&quot;text-align:center; padding:4px;&quot;&gt;Code Quality&lt;/th&gt;&lt;th style=&quot;text-align:center; padding:4px;&quot;&gt;Modern Syntax&lt;/th&gt;&lt;th style=&quot;text-align:center; padding:4px;&quot;&gt;UX&lt;/th&gt;&lt;th style=&quot;text-align:center; padding:4px;&quot;&gt;Overall&lt;/th&gt;&lt;/tr&gt;&lt;tr&gt;&lt;td style=&quot;padding:4px;&quot;&gt;&lt;b&gt;StarCoder2 15B&lt;/b&gt;&lt;/td&gt;&lt;td style=&quot;text-align:center; padding:4px;&quot;&gt;✅ 10/10&lt;/td&gt;&lt;td style=&quot;text-align:center; padding:4px;&quot;&gt;✅ 9/10&lt;/td&gt;&lt;td style=&quot;text-align:center; padding:4px;&quot;&gt;✅ 9/10&lt;/td&gt;&lt;td style=&quot;text-align:center; padding:4px;&quot;&gt;✅ 10/10&lt;/td&gt;&lt;td style=&quot;text-align:center; padding:4px;&quot;&gt;&lt;b&gt;🥇 9.5/10&lt;/b&gt;&lt;/td&gt;&lt;/tr&gt;&lt;tr&gt;&lt;td style=&quot;padding:4px;&quot;&gt;&lt;b&gt;DeepSeek 6.7B&lt;/b&gt;&lt;/td&gt;&lt;td style=&quot;text-align:center; padding:4px;&quot;&gt;✅ 10/10&lt;/td&gt;&lt;td style=&quot;text-align:center; padding:4px;&quot;&gt;✅ 8/10&lt;/td&gt;&lt;td style=&quot;text-align:center; padding:4px;&quot;&gt;✅ 8/10&lt;/td&gt;&lt;td style=&quot;text-align:center; padding:4px;&quot;&gt;✅ 7/10&lt;/td&gt;&lt;td style=&quot;text-align:center; padding:4px;&quot;&gt;&lt;b&gt;🥈 8.25/10&lt;/b&gt;&lt;/td&gt;&lt;/tr&gt;&lt;tr&gt;&lt;td style=&quot;padding:4px;&quot;&gt;&lt;b&gt;Qwen2.5 7B&lt;/b&gt;&lt;/td&gt;&lt;td style=&quot;text-align:center; padding:4px;&quot;&gt;❌ 2/10&lt;/td&gt;&lt;td style=&quot;text-align:center; padding:4px;&quot;&gt;✅ 10/10&lt;/td&gt;&lt;td style=&quot;text-align:center; padding:4px;&quot;&gt;✅ 10/10&lt;/td&gt;&lt;td style=&quot;text-align:center; padding:4px;&quot;&gt;✅ 8/10&lt;/td&gt;&lt;td style=&quot;text-align:center; padding:4px;&quot;&gt;&lt;b&gt;🥉 7.5/10&lt;/b&gt;&lt;/td&gt;&lt;/tr&gt;&lt;tr&gt;&lt;td style=&quot;padding:4px;&quot;&gt;&lt;b&gt;StarCoder2 7B&lt;/b&gt;&lt;/td&gt;&lt;td style=&quot;text-align:center; padding:4px;&quot;&gt;❌ 0/10&lt;/td&gt;&lt;td style=&quot;text-align:center; padding:4px;&quot;&gt;❌ 0/10&lt;/td&gt;&lt;td style=&quot;text-align:center; padding:4px;&quot;&gt;❌ 0/10&lt;/td&gt;&lt;td style=&quot;text-align:center; padding:4px;&quot;&gt;❌ 1/10&lt;/td&gt;&lt;td style=&quot;text-align:center; padding:4px;&quot;&gt;&lt;b&gt;❌ 0.25/10&lt;/b&gt;&lt;/td&gt;&lt;/tr&gt;&lt;/table&gt;" tooltip="Performance matrix showing quantitative scores for each model in Round 2. StarCoder2 15B leads with 9.5/10 overall, excelling in all categories. DeepSeek Coder scores 8.25/10 with significant improvements from Round 1. Qwen2.5 Coder scores 7.5/10 with perfect code quality but poor tool execution. StarCoder2 7B scores 0.25/10 with complete failure across all metrics. This quantitative analysis shows the major improvements achieved in Round 2 and provides clear guidance for model selection." id="performance-matrix">
                    <mxCell style="rounded=1;whiteSpace=wrap;html=1;fontSize=11;fillColor=#f5f5f5;strokeColor=#666666;verticalAlign=top;spacingTop=5;" parent="1" vertex="1">
                        <mxGeometry x="40" y="1670" width="1320" height="160" as="geometry"/>
                    </mxCell>
                </object>
            </root>
        </mxGraphModel>
    </diagram>
</mxfile>